<svg xmlns="http://www.w3.org/2000/svg" width="403" height="79" viewBox="0 0 403 79"><style>.st0,.st1{fill-rule:evenodd;clip-rule:evenodd;fill:#fff}.st1{fill:#2e2e2e}</style><path class="st0" d="M201.6 26.6v13.9c-.5-1.2-1.1-2.3-1.9-3.2-1.9-2.1-4.4-3.1-7.6-3.1-2.1 0-4 .5-5.7 1.5-1.3.8-2.3 1.8-3.2 3l1.4-4.2H175l-2 7.3-2-7.3h-9.6l.9 2.7c-.2-.3-.5-.6-.8-.8-1.7-1.5-4.1-2.2-6.9-2.2-1.8 0-3.5.3-5 1-1 .4-1.9 1-2.6 1.7V35l-1.4-.4c-.7-.2-1.4-.3-2.2-.3-.7 0-1.6.1-2.5.5v-.1h-8.7v7c-.3-2.1-1.2-3.8-2.7-5.1-1.7-1.5-4.1-2.2-6.9-2.2-1.8 0-3.5.3-5 1-1.6.7-2.8 1.6-3.7 2.9-.9 1.3-1.4 2.7-1.4 4.2v2h2.3c-1.5 1.3-2.4 3-2.6 5.1H103V28h-9.3v29.6h20.5v-2.2l.4.4c1.6 1.4 3.6 2.1 6 2.1.9 0 1.8-.1 2.6-.3h18.1V43.7c.2-.2.7-.5 1.8-.5.4 0 .9 0 1.4.1v1h2.3c-1.8 1.4-2.7 3.5-2.7 6 0 2.2.9 4.1 2.5 5.6 1.6 1.4 3.6 2.1 6 2.1 1.4 0 2.7-.3 3.8-.8l.2.5h8.4v-2.8l-.2-.4c-.2-.4-.5-1.2-.5-3.2v-8.1l4.9 14.5h7.7l4.4-13c0 .5-.1.9-.1 1.4v.5c0 3.4 1.1 6.2 3.2 8.3 2.1 2.1 4.9 3.1 8.2 3.1 1.9 0 3.6-.4 5.2-1.1 1.6-.7 2.8-1.8 3.8-3.1v3.8h9.1v-31h-9.1zm-1.4 23.2h1.4v1.5l-1.4-1.5zM342.1 57.5c-1.9 0-3.4-.6-4.3-1.8-.9-1.1-1.3-2.7-1.3-4.6V39.8h-3.3c.2.7.3 1.4.3 2.1v1.5h-5.1v-1.5c0-.7-.3-1.1-.8-1.6-.7-.5-1.5-.8-2.6-.8-1 0-1.9.2-2.4.6-.5.3-.6.7-.6 1.2 0 .6.2.8.4 1 .3.2 1.1.7 3.3 1.2 2 .5 3.5 1 4.5 1.5 1.1.6 2 1.4 2.6 2.3.6.9.9 2 .9 3.3 0 2.1-.9 3.8-2.5 5.1-1.6 1.2-3.6 1.7-6 1.7-2.5 0-4.7-.6-6.3-1.9-1.7-1.3-2.6-3.2-2.6-5.3v-1.5h5l.1 1.4c.1.8.3 1.3.9 1.8.7.5 1.7.7 2.9.7 1.1 0 2-.2 2.7-.7.6-.4.7-.8.7-1.1v-.1c0-.6-.2-1-.7-1.3-.5-.3-1.4-.8-3.2-1.2-1.8-.4-3.2-.8-4.3-1.4-1.2-.6-2.1-1.3-2.6-2.2-.6-.9-.9-2-.9-3.3 0-2 .9-3.6 2.5-4.9 1.5-1.2 3.4-1.8 5.7-1.8 2.5 0 4.5.6 6.1 1.9.9.7 1.6 1.6 2 2.6v-4.2h3.5V30h3.6l.4 1.5h1.1v3.4h3.9v4.7h-3.9V51c0 1 .2 1.4.3 1.5.1.1.3.2.7.2.2 0 .5 0 1.5-.2l1.6-.2.2 4.5-1 .4c-1 .1-1.9.3-3 .3zm13.6 0c-1.9 0-3.6-.5-5.2-1.4-1.5-.9-2.8-2.3-3.6-3.9-.8-1.6-1.3-3.5-1.3-5.5v-.8c0-2 .4-3.9 1.2-5.6.8-1.7 2-3.1 3.5-4.1 1.5-1 3.2-1.5 4.9-1.5 2.8 0 5 1 6.6 2.9 1.6 1.8 2.4 4.4 2.4 7.4v2.7h-13.5c.2 1.3.6 2.4 1.4 3.3.9 1.1 2.1 1.6 3.5 1.6.9 0 1.7-.2 2.3-.5.6-.3 1.3-.8 1.8-1.5l.9-1.2 3.6 2.8-.8 1.2c-1.6 2.7-4.3 4.1-7.7 4.1zm3.4-14.5c-.2-.9-.5-1.6-1.1-2.2-.7-.8-1.6-1.2-2.7-1.2-1.2 0-2.1.4-2.9 1.3-.5.6-.9 1.3-1.2 2.2h7.9zm33.6 14.5c-2.7 0-4.9-1.1-6.5-3.2-1.5-2-2.3-4.7-2.3-8.1V46c0-3.3.8-5.9 2.3-8 1.6-2.1 3.8-3.2 6.6-3.2 1.7 0 3.1.4 4.4 1.1v-8.7h5.1v30h-4.9v-.8c-1.5.7-3 1.1-4.7 1.1zm.4-17.9c-1.3 0-2.2.5-2.9 1.5-.8 1.1-1.2 2.9-1.2 5.3 0 2.1.4 3.7 1.2 4.9.7 1 1.6 1.5 2.9 1.5 1.9 0 3.2-.7 4-2.3v-8.2c-.9-1.9-2.1-2.7-4-2.7zm-85.8 17.9c-1.9 0-3.6-.5-5.2-1.4-1.5-.9-2.8-2.3-3.6-3.9-.8-1.6-1.3-3.5-1.3-5.5v-.8c0-2 .4-3.9 1.2-5.6.8-1.7 2-3.1 3.5-4.1 1.5-1 3.2-1.5 4.9-1.5 2.8 0 5 1 6.6 2.9 1.6 1.8 2.4 4.4 2.4 7.4v2.7h-13.5c.2 1.3.6 2.4 1.4 3.3.9 1.1 2.1 1.6 3.5 1.6.9 0 1.7-.2 2.3-.5.6-.3 1.3-.8 1.8-1.5l.9-1.2 3.6 2.8-.8 1.2c-1.6 2.7-4.2 4.1-7.7 4.1zm3.4-14.5c-.2-.9-.5-1.6-1.1-2.2-.7-.8-1.6-1.2-2.7-1.2-1.2 0-2.1.4-2.9 1.3-.5.6-.9 1.3-1.2 2.2h7.9zm-55.5 14.5c-3 0-5.4-1.1-7.3-3.2-1.7-1.9-2.6-4.4-2.7-7.4v-1.1c0-2 .4-3.9 1.2-5.6.8-1.7 2-3.1 3.6-4 1.5-1 3.3-1.5 5.2-1.5 3 0 5.4 1.1 7.3 3.2 1.8 2 2.7 4.8 2.7 8.1v.4c0 2.1-.4 3.9-1.2 5.6-.8 1.7-2 3.1-3.6 4-1.5 1-3.3 1.5-5.2 1.5zm-4.9-11.1c0 1.9.5 3.5 1.4 4.7.9 1.1 2 1.6 3.5 1.6s2.5-.5 3.4-1.6c1-1.2 1.4-2.8 1.4-4.8v-.4c0-1.2-.2-2.4-.7-3.4-.4-1-1-1.7-1.7-2.2-.7-.5-1.5-.7-2.5-.7-1.4 0-2.5.5-3.4 1.6-1 1.2-1.4 2.8-1.4 4.8v.4zm121.8 11.1c-2.2 0-4-.6-5.4-1.9-1.5-1.3-2.2-3-2.2-5 0-2.3 1-4.3 3-5.6 1.8-1.3 4.2-1.9 7.3-1.9h2.3v-.7c0-.9-.2-1.6-.8-2.1-.5-.5-1.4-.8-2.6-.8-1.1 0-2 .3-2.7.8-.8.6-.9 1.1-.9 1.5v1.5H365v-1.5c0-2 .9-3.7 2.7-5.1 1.7-1.3 3.7-2 6.1-2 2.5 0 4.5.7 6 2 1.6 1.3 2.4 3.2 2.4 5.5v9c0 2 .2 3 .5 3.5l.1.3v2H378s-.4-1.1-.4-1.2c-.4.2-.7.4-1.1.6-1.5.8-2.9 1.1-4.4 1.1zm2.7-9.8c-1.8 0-3.2.3-4.1.9-.7.5-1.1 1-1.1 1.8 0 .6.2 1.1.7 1.5.5.5 1.2.7 2.1.7 1.1 0 2.1-.3 3-.8.8-.5 1.3-1.1 1.7-1.8v-2.3h-2.3zM291 57.1v-14c0-1.3-.3-2.3-.7-2.8-.4-.5-1.2-.7-2.4-.7-1.1 0-2 .4-2.8 1.1-.7.7-1.2 1.5-1.3 2.5v14h-5.1V42.9c0-1.2-.3-2.1-.7-2.6-.5-.5-1.3-.7-2.4-.7-1 0-1.8.3-2.5.8s-1.2 1.3-1.5 2.4v14.3h-5.1v-22h5v1c.2-.1.3-.2.5-.3 1.3-.7 2.7-1 4.2-1 3 0 4.8 1.1 5.9 2.5.5-.5 1.1-1 1.8-1.3 1.4-.8 2.9-1.2 4.5-1.2 4.9 0 7.6 2.9 7.7 8.2v14.2H291zm-52.8 0V44.9h-11.6v12.3h-5.2V28.5h5.2V40h11.6V28.5h5.2v28.6h-5.2z"/><path class="st1" d="M241.9 55.6h-2.2V43.4h-14.6v12.3h-2.2V30h2.2v11.5h14.6V30h2.2v25.6zm4.8-9.8c0-1.8.4-3.5 1.1-4.9.7-1.5 1.7-2.6 3-3.4 1.3-.8 2.8-1.2 4.4-1.2 2.5 0 4.6.9 6.2 2.7 1.6 1.8 2.4 4.1 2.4 7.1v.4c0 1.8-.4 3.5-1.1 5-.7 1.5-1.7 2.6-3 3.4-1.3.8-2.8 1.2-4.4 1.2-2.5 0-4.6-.9-6.1-2.7-1.6-1.8-2.4-4.1-2.4-7.1l-.1-.5zm2.1.6c0 2.3.6 4.1 1.8 5.6 1.2 1.5 2.7 2.2 4.6 2.2 1.9 0 3.4-.7 4.6-2.2 1.2-1.5 1.8-3.4 1.8-5.8v-.4c0-1.5-.3-2.8-.8-4-.5-1.2-1.3-2.1-2.3-2.8-1-.7-2.1-1-3.3-1-1.9 0-3.4.7-4.6 2.2-1.2 1.5-1.8 3.4-1.8 5.8v.4zm21.1-9.8.1 3.1c.7-1.1 1.6-2 2.6-2.6 1.1-.6 2.2-.9 3.5-.9 3 0 4.9 1.2 5.7 3.7.7-1.2 1.6-2.1 2.7-2.7 1.1-.6 2.4-1 3.8-1 4.1 0 6.2 2.2 6.2 6.7v12.7h-2.1V43.1c0-1.7-.4-3-1.1-3.8-.7-.8-1.9-1.2-3.5-1.2-1.5 0-2.8.5-3.8 1.5s-1.6 2.1-1.7 3.5v12.6h-2.1V42.9c0-1.6-.4-2.8-1.1-3.7-.8-.8-1.9-1.2-3.5-1.2-1.3 0-2.5.4-3.4 1.1-1 .8-1.7 1.9-2.1 3.4v13H268v-19h1.9v.1zM307.3 56c-1.6 0-3.1-.4-4.4-1.2-1.3-.8-2.3-1.9-3-3.3-.7-1.4-1.1-3-1.1-4.8v-.8c0-1.8.4-3.5 1.1-4.9.7-1.5 1.7-2.6 3-3.5 1.3-.8 2.6-1.3 4.1-1.3 2.3 0 4.1.8 5.5 2.4s2 3.7 2 6.5v1.2h-13.6v.4c0 2.2.6 4 1.9 5.4 1.2 1.4 2.8 2.2 4.7 2.2 1.1 0 2.1-.2 3-.6.9-.4 1.6-1.1 2.3-2l1.3 1c-1.6 2.2-3.9 3.3-6.8 3.3zm-.4-18c-1.6 0-2.9.6-4 1.7-1.1 1.2-1.7 2.7-2 4.7h11.4v-.2c-.1-1.8-.6-3.3-1.6-4.5-.9-1.1-2.2-1.7-3.8-1.7zm23 12.8c0-1-.4-1.9-1.3-2.5-.8-.6-2.1-1.1-3.8-1.5-1.7-.4-3-.8-3.9-1.2-.9-.5-1.6-1-2.1-1.7s-.7-1.5-.7-2.4c0-1.5.6-2.7 1.9-3.7 1.3-1 2.9-1.5 4.8-1.5 2.1 0 3.8.5 5.1 1.6 1.3 1 1.9 2.4 1.9 4.1h-2.1c0-1.1-.5-2-1.4-2.8-.9-.7-2.1-1.1-3.5-1.1s-2.5.3-3.3.9c-.8.6-1.3 1.4-1.3 2.4 0 .9.4 1.7 1 2.2.7.5 2 1 3.8 1.4 1.8.4 3.2.9 4.1 1.4.9.5 1.6 1.1 2 1.8.4.7.7 1.5.7 2.5 0 1.6-.6 2.9-1.9 3.8s-3 1.4-5.1 1.4c-2.2 0-4-.5-5.4-1.6-1.4-1.1-2.1-2.4-2.1-4.1h2.1c.1 1.2.6 2.2 1.6 2.9 1 .7 2.2 1 3.8 1 1.5 0 2.6-.3 3.6-1 1.1-.5 1.5-1.3 1.5-2.3zM340 31.7v4.9h3.9v1.7H340V51c0 1.1.2 1.8.6 2.4.4.5 1 .8 1.9.8.4 0 .9-.1 1.7-.2l.1 1.7c-.5.2-1.3.3-2.2.3-1.4 0-2.5-.4-3.1-1.3-.7-.8-1-2.1-1-3.7V38.3h-3.5v-1.7h3.5v-4.9h2zM355.7 56c-1.6 0-3.1-.4-4.4-1.2-1.3-.8-2.3-1.9-3-3.3-.7-1.4-1.1-3-1.1-4.8v-.8c0-1.8.4-3.5 1.1-4.9.7-1.5 1.7-2.6 3-3.5 1.3-.8 2.6-1.3 4.1-1.3 2.3 0 4.1.8 5.5 2.4 1.4 1.6 2 3.7 2 6.5v1.2h-13.6v.4c0 2.2.6 4 1.9 5.4 1.2 1.4 2.8 2.2 4.7 2.2 1.1 0 2.1-.2 3-.6.9-.4 1.6-1.1 2.3-2l1.3 1c-1.6 2.2-3.9 3.3-6.8 3.3zm-.4-18c-1.6 0-2.9.6-4 1.7s-1.7 2.7-2 4.7h11.4v-.2c-.1-1.8-.6-3.3-1.6-4.5-.9-1.1-2.2-1.7-3.8-1.7zm23.6 17.6c-.2-.6-.3-1.5-.4-2.7-.7 1-1.7 1.7-2.8 2.2-1.1.5-2.4.8-3.6.8-1.8 0-3.3-.5-4.4-1.5-1.1-1-1.7-2.3-1.7-3.9 0-1.8.8-3.3 2.3-4.4 1.5-1.1 3.7-1.6 6.4-1.6h3.8v-2.2c0-1.4-.4-2.4-1.3-3.2-.8-.8-2.1-1.2-3.7-1.2-1.5 0-2.7.4-3.6 1.1-1 .8-1.4 1.7-1.4 2.7h-2.1c0-1.5.7-2.8 2.1-3.9 1.4-1.1 3.1-1.7 5.2-1.7s3.8.5 5 1.6c1.2 1.1 1.9 2.5 1.9 4.4v9c0 1.8.2 3.2.6 4.1v.2h-2.3zm-6.6-1.5c1.4 0 2.7-.3 3.8-1 1.1-.7 1.9-1.6 2.4-2.7v-4.2h-3.8c-2.1 0-3.7.4-4.9 1.2-1.2.7-1.8 1.8-1.8 3.1 0 1.1.4 2 1.2 2.7.8.6 1.9.9 3.1.9zm13.1-8.2c0-3 .7-5.3 2-7.1s3.1-2.6 5.4-2.6c2.6 0 4.5 1 5.9 3V28.6h2.1v27h-2l-.1-2.5c-1.3 1.9-3.3 2.9-5.9 2.9-2.2 0-4-.9-5.3-2.6-1.3-1.8-2-4.1-2-7.1l-.1-.4zm2.1.4c0 2.4.5 4.3 1.5 5.7 1 1.4 2.3 2.1 4.1 2.1 2.6 0 4.4-1.1 5.5-3.4v-8.9c-1.1-2.5-2.9-3.7-5.5-3.7-1.8 0-3.1.7-4.1 2.1-1 1.4-1.5 3.4-1.5 6.1z"/><path class="st0" d="M58 79.1v-8.9l-6-6V16l12 12v-1l11-11v48.2l-10 10v4.9h-7zm-26 0v-8.9l-6-6V0l12 12v-1L49 0v64.2l-10 10v4.9h-7zm-26 0v-8.9l-6-6V16l12 12v-1l11-11v48.2l-10 10v4.9H6z"/><linearGradient id="SVGID_1_" gradientUnits="userSpaceOnUse" x1="59.167" y1="318.364" x2="59.167" y2="317.364" gradientTransform="matrix(72 0 0 -74 -4222.5 23562.582)"><stop offset="0" stop-color="#fed757"/><stop offset="1" stop-color="#e37413"/></linearGradient><path d="m59.5 41.6-6-6v12l6 6v4l-6-6v12l6 6v8h4v-48l-3-3-7-7v12l6 6v4zm-52 0-6-6v12l6 6v4l-6-6v12l6 6v8h4v-48l-3-3-7-7v12l6 6v4zm26 0-6-6v12l6 6v4l-6-6v12l6 6v8h4v-64l-3-3-7-7v12l6 6v4l-6-6v12l6 6v4zm6 2 8-8v12l-8 8v-12zm0 16 8-8v12l-8 8v-12zm0-32 8-8v12l-8 8v-12zm0-16 8-8v12l-8 8v-12zm-26 32 8-8v12l-8 8v-12zm0 16 8-8v12l-8 8v-12zm0-32 8-8v12l-8 8v-12zm52 16 8-8v12l-8 8v-12zm0 16 8-8v12l-8 8v-12zm0-32 8-8v12l-8 8v-12z" fill-rule="evenodd" clip-rule="evenodd" fill="url(#SVGID_1_)"/><path class="st1" d="M101.1 51.4h11.2v4.2H95.8V30h5.3v21.4zM130.3 51.2V43c0-2.1-.7-3.8-2.1-5-1.4-1.2-3.2-1.8-5.6-1.8-1.5 0-2.9.3-4.2.8-1.2.5-2.2 1.3-2.9 2.2s-1 2-1 3.1h5.1c0-.7.2-1.3.7-1.7.5-.4 1.2-.6 2-.6 1 0 1.7.3 2.1.8.5.5.7 1.2.7 2.1V44h-2.3c-2.8 0-5 .6-6.5 1.6-1.5 1.1-2.2 2.6-2.2 4.6 0 1.6.6 3 1.8 4.1 1.2 1.1 2.8 1.6 4.6 1.6 2 0 3.6-.7 4.8-2.1.1.7.3 1.2.5 1.7h5.1v-.3c-.3-.8-.5-2.2-.6-4zm-5.1-1c-.3.6-.8 1-1.4 1.3-.6.3-1.3.5-2.1.5s-1.4-.2-1.8-.6c-.4-.4-.7-.9-.7-1.6v-.3c.2-1.8 1.5-2.6 4.1-2.6h1.9v3.3zM144.9 41.4c-.7-.1-1.3-.1-1.8-.1-1.9 0-3.2.7-3.8 2v12.4h-5.1v-19h4.8l.1 2.3c1-1.7 2.4-2.6 4.2-2.6.6 0 1.1.1 1.6.2.1-.1 0 4.8 0 4.8zM162.2 51.2V43c0-2.1-.7-3.8-2.1-5-1.4-1.2-3.2-1.8-5.6-1.8-1.5 0-2.9.3-4.2.8-1.2.5-2.2 1.3-2.9 2.2-.7.9-1 2-1 3.1h5.1c0-.7.2-1.3.7-1.7.5-.4 1.2-.6 2-.6 1 0 1.7.3 2.1.8.5.5.7 1.2.7 2.1V44h-2.3c-2.8 0-5 .6-6.5 1.6-1.5 1.1-2.2 2.6-2.2 4.6 0 1.6.6 3 1.8 4.1 1.2 1.1 2.8 1.6 4.6 1.6 2 0 3.6-.7 4.8-2.1.1.7.3 1.2.5 1.7h5.1v-.3c-.3-.8-.5-2.2-.6-4zm-5-1c-.3.6-.8 1-1.4 1.3-.6.3-1.3.5-2.1.5s-1.4-.2-1.8-.6c-.4-.4-.7-.9-.7-1.6v-.3c.2-1.8 1.5-2.6 4.1-2.6h1.9v3.3zM173 49.4l3.5-12.8h5.3l-6.4 19h-4.8l-6.4-19h5.3zM200.4 45.7c0-3-.7-5.3-2.2-7s-3.5-2.5-6.1-2.5c-1.7 0-3.3.4-4.6 1.2-1.4.8-2.4 2-3.1 3.5-.7 1.5-1.1 3.2-1.1 5.1v.5c0 2.8.9 5.1 2.6 6.8 1.8 1.7 4 2.6 6.8 2.6 1.6 0 3-.3 4.3-.9 1.3-.6 2.3-1.4 3.1-2.5l-2.5-2.8c-1.1 1.4-2.6 2.1-4.6 2.1-1.3 0-2.3-.4-3.1-1.1-.8-.8-1.3-1.7-1.5-3h12.1v-2zm-5-1.4h-7.1c.2-1.3.6-2.2 1.2-2.9.6-.7 1.4-1 2.5-1s1.9.3 2.5.9c.6.6.9 1.5.9 2.6v.4zM203.6 28.6h5.1v27h-5.1z"/></svg>